{"accessors" : [{"bufferView" : 0, "byteOffset" : 0, "componentType" : 5123, "count" : 32484, "type" : "SCALAR", "max" : [16345], "min" : [0]}, {"bufferView" : 1, "byteOffset" : 0, "componentType" : 5126, "count" : 16346, "type" : "VEC3", "max" : [103.88583374023438, 348.1965026855469, 121.33332824707031], "min" : [-141.6984100341797, 94.57292175292969, 0.24218229949474335], "name" : "POSITION"}, {"bufferView" : 1, "byteOffset" : 12, "componentType" : 5126, "count" : 16346, "type" : "VEC3", "max" : [1.0000015497207642, 0.9993788599967957, 1.0000044107437134], "min" : [-1.0000042915344238, -0.9999291896820068, -1.0000044107437134], "name" : "NORMAL"}], "asset" : {"generator" : "Aspose.3D 24.6.0", "version" : "2.0"}, "buffers" : [{"uri" : "data:application/octet-stream;base64,", "byteLength" : 457280}], "bufferViews" : [{"buffer" : 0, "byteOffset" : 0, "byteLength" : 64968, "target" : 34963}, {"buffer" : 0, "byteOffset" : 64972, "byteLength" : 392304, "byteStride" : 24, "target" : 34962}], "meshes" : [{"primitives" : [{"attributes" : {"POSITION" : 1, "NORMAL" : 2}, "indices" : 0, "mode" : 4}], "name" : ""}], "nodes" : [{"mesh" : 0, "name" : ""}], "scene" : 0, "scenes" : [{"nodes" : [0]}]}